<svg width="16" height="16" viewBox="0 0 16 16" fill="none" xmlns="http://www.w3.org/2000/svg">
<path d="M15 11.8889V13.4444C15 13.857 14.8361 14.2527 14.5444 14.5444C14.2527 14.8361 13.857 15 13.4444 15H2.55556C2.143 15 1.74733 14.8361 1.45561 14.5444C1.16389 14.2527 1 13.857 1 13.4444V11.8889M15 4.11111V2.55556C15 2.143 14.8361 1.74733 14.5444 1.45561C14.2527 1.16389 13.857 1 13.4444 1H2.55556C2.143 1 1.74733 1.16389 1.45561 1.45561C1.16389 1.74733 1 2.143 1 2.55556V4.11111" stroke="white" stroke-width="2" stroke-linecap="round" stroke-linejoin="round"/>
<path d="M8.00043 8.77772C8.42999 8.77772 8.77821 8.4295 8.77821 7.99995C8.77821 7.57039 8.42999 7.22217 8.00043 7.22217C7.57088 7.22217 7.22266 7.57039 7.22266 7.99995C7.22266 8.4295 7.57088 8.77772 8.00043 8.77772Z" stroke="white" stroke-width="2" stroke-linecap="round" stroke-linejoin="round"/>
<path d="M13.401 8.25667C13.4591 8.09049 13.4591 7.90952 13.401 7.74334C12.9631 6.67034 12.2155 5.75209 11.2536 5.10571C10.2917 4.45934 9.15904 4.11414 8.00012 4.11414C6.84121 4.11414 5.70855 4.45934 4.74664 5.10571C3.78472 5.75209 3.03713 6.67034 2.59923 7.74334C2.54114 7.90952 2.54114 8.09049 2.59923 8.25667C3.03713 9.32968 3.78472 10.2479 4.74664 10.8943C5.70855 11.5407 6.84121 11.8859 8.00012 11.8859C9.15904 11.8859 10.2917 11.5407 11.2536 10.8943C12.2155 10.2479 12.9631 9.32968 13.401 8.25667Z" stroke="white" stroke-width="2" stroke-linecap="round" stroke-linejoin="round"/>
</svg>
